HIERARCHY
ROOT root
{
	OFFSET	0	13.1	24.9
	CHANNELS 6  Xposition Yposition Zposition Xrotation Yrotation Zrotation
	JOINT spine_1
	{
		OFFSET	0	9.99999	0
		CHANNELS 3  Xrotation Yrotation Zrotation
		JOINT spine_2
		{
			OFFSET	0	112	-10
			CHANNELS 3  Xrotation Yrotation Zrotation
			JOINT spine_3
			{
				OFFSET	0	206.5	19.3
				CHANNELS 3  Xrotation Yrotation Zrotation
				JOINT spine_4
				{
					OFFSET	0	110.4	14.6
					CHANNELS 3  Xrotation Yrotation Zrotation
					JOINT neck_1
					{
						OFFSET	0	71.8	-50.3
						CHANNELS 3  Xrotation Yrotation Zrotation
						JOINT neck_2
						{
							OFFSET	0	86.2	-25.8
							CHANNELS 3  Xrotation Yrotation Zrotation
							JOINT head_ee
							{
								OFFSET	0	179.8	-8.7
								CHANNELS 3  Xrotation Yrotation Zrotation
								End Site
								{
									OFFSET	1	0	0
								}
							}
						}
					}
					JOINT left_clavicle
					{
						OFFSET	-43.2	22.4	-70.8
						CHANNELS 3  Xrotation Yrotation Zrotation
						JOINT left_shoulder
						{
							OFFSET	-93.9	-5.79999	48.7
							CHANNELS 3  Xrotation Yrotation Zrotation
							JOINT left_elbow
							{
								OFFSET	-291.4	-30.8	15.2
								CHANNELS 3  Xrotation Yrotation Zrotation
								JOINT left_lowarm_twist
								{
									OFFSET	-110.7	-3.89999	13.6
									CHANNELS 3  Xrotation Yrotation Zrotation
									JOINT left_hand
									{
										OFFSET	-110.7	-3.89999	13.6
										CHANNELS 3  Xrotation Yrotation Zrotation
										JOINT left_ee
										{
											OFFSET	-80.8	-5.10001	12.1
											CHANNELS 3  Xrotation Yrotation Zrotation
											End Site
											{
												OFFSET	1	0	0
											}
										}
									}
								}
							}
						}
					}
					JOINT right_clavicle
					{
						OFFSET	43.2	22.4	-70.8
						CHANNELS 3  Xrotation Yrotation Zrotation
						JOINT right_shoulder
						{
							OFFSET	93.9	-5.79999	48.7
							CHANNELS 3  Xrotation Yrotation Zrotation
							JOINT right_elbow
							{
								OFFSET	291.4	-30.8	15.2
								CHANNELS 3  Xrotation Yrotation Zrotation
								JOINT right_lowarm_twist
								{
									OFFSET	110.7	-3.89999	13.6
									CHANNELS 3  Xrotation Yrotation Zrotation
									JOINT right_hand
									{
										OFFSET	110.7	-3.89999	13.6
										CHANNELS 3  Xrotation Yrotation Zrotation
										JOINT right_ee
										{
											OFFSET	80.8	-5.10001	12.1
											CHANNELS 3  Xrotation Yrotation Zrotation
											End Site
											{
												OFFSET	1	0	0
											}
										}
									}
								}
							}
						}
					}
				}
			}
		}
	}
	JOINT left_hip
	{
		OFFSET	-82.8	-127.5	0.300001
		CHANNELS 3  Xrotation Yrotation Zrotation
		JOINT left_knee
		{
			OFFSET	-28.2	-396.7	2.2
			CHANNELS 3  Xrotation Yrotation Zrotation
			JOINT left_ankle
			{
				OFFSET	-11.7	-411.3	35.4
				CHANNELS 3  Xrotation Yrotation Zrotation
				JOINT left_toes
				{
					OFFSET	0	-60	-88.6
					CHANNELS 3  Xrotation Yrotation Zrotation
					JOINT left_foot_ee
					{
						OFFSET	-22.5	-16.5	-42.2
						CHANNELS 3  Xrotation Yrotation Zrotation
						End Site
						{
							OFFSET	1	0	0
						}
					}
				}
			}
		}
	}
	JOINT right_hip
	{
		OFFSET	82.8	-127.5	0.300001
		CHANNELS 3  Xrotation Yrotation Zrotation
		JOINT right_knee
		{
			OFFSET	28.2	-396.7	2.2
			CHANNELS 3  Xrotation Yrotation Zrotation
			JOINT right_ankle
			{
				OFFSET	11.7	-411.3	35.4
				CHANNELS 3  Xrotation Yrotation Zrotation
				JOINT right_toes
				{
					OFFSET	0	-60	-88.6
					CHANNELS 3  Xrotation Yrotation Zrotation
					JOINT right_foot_ee
					{
						OFFSET	22.5	-16.5	-42.2
						CHANNELS 3  Xrotation Yrotation Zrotation
						End Site
						{
							OFFSET	1	0	0
						}
					}
				}
			}
		}
	}
}
MOTION
Frames: 12
Frame Time: 0.02
3591.2 737.889 -1379.16 16.2289 78.3521 -16.8161 -1.40371 0.341816 -0.549299 -1.40362 0.376076 -0.526436 -1.40715 0.488886 -0.423744 -1.40716 0.415828 -0.495635 -0.984225 6.08938 2.31974 -0.931135 9.05809 3.18394 -0.0 0.0 -0.0 1.03711 10.9068 3.05532 -19.9078 -19.6795 72.4111 0.925049 -24.6189 0.201857 -0.751425 -0.0270811 0.0921401 0.212737 -9.98854 -2.80847 -0.0 0.0 -0.0 10.723 20.0992 -21.0211 3.55673 11.7438 -56.6212 0.785046 21.2504 -0.147277 6.41026 -0.181347 0.798319 -0.0148734 -2.98506 -1.15431 0.0 0.0 0.0 21.2017 11.1103 -4.57999 -53.8412 -1.5729 7.81294 32.9562 5.60976 -4.19578 -14.8156 0.0 0.0 -0.0 0.0 -0.0 -8.02499 -10.8964 0.769506 -11.2611 -0.29742 -1.69983 34.5041 10.6848 4.5312 -17.8355 0.0 0.0 0.0 0.0 0.0 
3587.65 741.453 -1380.2 15.9853 77.4703 -16.5393 -1.56322 0.417592 -0.572936 -1.56315 0.453202 -0.545203 -1.5676 0.56945 -0.422334 -1.5675 0.495604 -0.506967 -1.20345 7.63197 2.78668 -1.12131 11.482 3.87309 -0.0 0.0 -0.0 0.793776 11.3651 2.68611 -21.0485 -19.7606 73.619 0.860561 -23.0882 0.175776 -0.400406 -0.0142799 0.0491416 0.292054 -9.12111 -1.90219 -0.0 0.0 -0.0 10.9381 21.442 -21.4047 4.81943 12.7721 -56.0694 0.980091 25.8965 -0.225345 5.92625 -0.170785 0.737393 0.0901193 -1.07774 -1.05362 0.0 0.0 0.0 21.6346 11.2066 -4.80245 -46.6872 -0.946044 6.90778 33.5048 5.94517 -4.251 -15.9784 0.0 0.0 -0.0 0.0 -0.0 -8.21244 -11.9979 1.17689 -10.3038 -0.2852 -1.55345 33.5483 12.7269 4.48469 -17.9606 0.0 0.0 0.0 0.0 0.0 
3583.47 741.274 -1382.32 15.1945 77.9541 -15.6042 -1.65646 0.150248 -0.556351 -1.65631 0.185345 -0.545663 -1.65802 0.310085 -0.485747 -1.65828 0.22948 -0.528622 -1.45974 7.34918 2.28551 -1.38507 11.4054 3.32607 -0.0 0.0 -0.0 0.694149 11.5141 2.53256 -21.9517 -19.382 74.315 0.839399 -22.578 0.167564 -0.154116 -0.00545578 0.0189261 0.354351 -9.701 -1.72898 -0.0 0.0 -0.0 11.1693 23.3352 -21.7644 6.56362 13.9504 -55.6061 1.16852 30.0633 -0.313805 5.46056 -0.160137 0.678858 0.128903 -1.5014 -1.48877 0.0 0.0 0.0 23.8393 11.721 -6.48336 -45.2367 -0.83308 6.71527 32.0414 4.3792 -4.1038 -17.0386 0.0 0.0 -0.0 0.0 -0.0 -8.48483 -12.5563 0.879991 -9.25033 -0.268928 -1.39263 32.3549 12.9883 4.36761 -18.2303 0.0 0.0 0.0 0.0 0.0 
3571.06 735.841 -1383.92 15.6484 77.6292 -15.8465 -1.45329 0.310623 -0.630207 -1.45314 0.350094 -0.609165 -1.45689 0.483443 -0.509836 -1.45704 0.396858 -0.579787 -0.436698 8.73655 3.7135 -0.320593 12.6094 4.93321 -0.0 0.0 -0.0 0.0247997 11.9796 1.45715 -23.9782 -19.0891 74.9438 0.824385 -22.2138 0.161844 0.0686607 0.00241426 -0.00843646 0.394044 -9.62127 -1.42688 -0.0 0.0 -0.0 11.2552 23.9117 -21.9044 7.0794 14.5186 -54.7913 1.30643 32.9081 -0.38586 5.02562 -0.149763 0.624266 0.256058 -0.474893 -1.90812 0.0 0.0 0.0 24.3985 11.2328 -6.93271 -43.2001 -0.682805 6.44035 33.1331 6.73302 -4.2142 -17.4664 0.0 0.0 -0.0 0.0 -0.0 -9.44111 -14.6217 0.812217 -9.37036 -0.270932 -1.41094 34.2255 15.0072 4.61775 -17.6773 0.0 0.0 0.0 0.0 0.0 
3563.56 737.735 -1385.1 10.5923 77.3591 -10.9102 -1.05421 0.416092 -0.498222 -1.05419 0.446952 -0.470736 -1.05798 0.542587 -0.356309 -1.05784 0.479506 -0.437529 -1.50868 9.53633 2.99745 -1.38235 14.7906 4.34694 -0.0 0.0 -0.0 -0.297007 12.2161 0.946837 -25.8551 -18.2314 76.0339 0.751651 -20.4226 0.135398 0.199185 0.00697556 -0.0244821 0.531343 -9.28546 -0.356448 -0.0 0.0 -0.0 11.4417 23.9496 -22.3244 8.406 15.4283 -54.9668 1.43987 35.4971 -0.460888 4.34636 -0.132732 0.539169 0.616639 2.36642 -3.14117 0.0 0.0 0.0 27.8676 9.46336 -7.7296 -33.7017 -0.115424 5.09698 24.3431 2.88508 -3.26149 -21.498 0.0 0.0 -0.0 0.0 -0.0 -10.5151 -15.0851 0.80523 -4.21857 -0.150558 -0.629771 34.0519 17.6819 4.68706 -19.1269 0.0 0.0 0.0 0.0 0.0 
3557.81 735.959 -1387.47 6.4053 76.6477 -6.75981 -0.817868 0.541174 -0.365205 -0.81797 0.563316 -0.330028 -0.821402 0.622965 -0.195335 -0.820979 0.584297 -0.291272 -1.45149 10.1331 3.35301 -1.30794 15.5756 4.7885 -0.0 0.0 -0.0 -0.689245 12.5498 0.335552 -27.1933 -18.3989 76.4658 0.71355 -19.4671 0.122401 0.342119 0.0119286 -0.042065 0.381317 -9.1058 -1.29277 -0.0 0.0 -0.0 11.7927 25.1668 -22.9996 9.44081 16.1771 -55.4729 1.5661 37.8017 -0.536252 4.80429 -0.144325 0.596517 0.729054 2.74638 -3.7393 0.0 0.0 0.0 29.3805 7.8343 -8.03705 -28.0512 0.113761 4.2605 19.2809 4.83601 -2.64337 -23.6561 0.0 0.0 -0.0 0.0 -0.0 -11.3834 -15.3196 0.546359 -1.39177 -0.0547996 -0.206552 35.1614 19.8865 4.88411 -19.9752 0.0 0.0 0.0 0.0 0.0 
3547.05 731.448 -1389.67 4.17338 76.2539 -4.92815 -0.559674 0.563743 -0.214407 -0.559834 0.576244 -0.178099 -0.56178 0.601295 -0.0471076 -0.561304 0.586309 -0.141483 -1.8099 10.7666 3.64334 -1.65463 16.5506 5.20652 -0.0 0.0 -0.0 -1.38332 13.3383 -0.701895 -28.6183 -18.1803 77.0417 0.676403 -18.5245 0.110309 0.63663 0.0219956 -0.0783321 0.285252 -8.84826 -1.83173 -0.0 0.0 -0.0 12.0432 26.2076 -23.456 10.4668 16.7881 -55.2651 1.69081 39.9454 -0.614529 4.78943 -0.143956 0.594654 1.08224 5.64621 -4.9108 0.0 0.0 0.0 30.016 6.8946 -8.21484 -23.4544 0.23865 3.56629 16.8437 4.82468 -2.33436 -25.2713 0.0 0.0 -0.0 0.0 -0.0 -11.0631 -17.1928 0.811558 -1.0471 -0.041697 -0.15528 35.6004 19.712 4.92172 -20.9201 0.0 0.0 0.0 0.0 0.0 
3535.57 734.184 -1392.76 0.800257 75.9083 -1.68096 -0.336639 0.647342 -0.154685 -0.336865 0.655873 -0.113178 -0.338323 0.664838 0.0311293 -0.337714 0.66141 -0.0742648 -1.88994 11.1887 3.7411 -1.72346 17.2522 5.3698 -0.0 0.0 -0.0 -1.31065 12.7388 -0.671199 -29.492 -18.0225 77.0744 0.636677 -17.5049 0.0980229 0.523733 0.0181589 -0.0644235 0.357153 -8.50298 -1.19887 -0.0 0.0 -0.0 12.1661 26.6206 -23.6886 11.4302 17.3526 -55.177 1.79489 41.6376 -0.682538 4.66896 -0.140946 0.57956 1.08385 5.55858 -4.9586 0.0 0.0 0.0 30.525 5.98387 -8.1626 -19.4711 0.301556 2.95842 13.019 4.99779 -1.83238 -26.7416 0.0 0.0 -0.0 0.0 -0.0 -12.363 -16.4905 0.304372 1.62726 0.0704218 0.239765 34.5424 21.3884 4.88258 -21.2866 0.0 0.0 0.0 0.0 0.0 
3527.35 730.797 -1396.17 -0.62784 75.6581 0.119618 -0.11753 0.468453 -0.103268 -0.117649 0.474075 -0.0732493 -0.118332 0.478822 0.0290165 -0.118014 0.477395 -0.0469705 -3.04106 11.7451 3.93952 -2.88689 18.3173 5.78254 -0.0 0.0 -0.0 -1.42319 12.6649 -0.869442 -30.1536 -18.0326 77.4973 0.56336 -15.5931 0.0771368 0.734076 0.0252857 -0.090343 0.458119 -7.5912 -0.128921 -0.0 0.0 -0.0 12.5836 26.7724 -24.6261 13.0396 18.3505 -55.2707 1.84185 42.3731 -0.713962 4.17367 -0.128242 0.517566 1.22217 7.40437 -5.11495 0.0 0.0 0.0 31.33 4.87791 -8.4065 -16.9061 0.319642 2.56531 7.47519 5.06611 -1.07292 -27.8793 0.0 0.0 -0.0 0.0 -0.0 -12.6952 -18.4189 -0.449669 1.51908 0.0655283 0.223887 35.5312 22.0937 5.01634 -21.1478 0.0 0.0 0.0 0.0 0.0 
3521.21 727.715 -1400.18 -3.85397 76.2265 3.51228 0.0306088 0.557655 -0.100566 0.0304382 0.562924 -0.0648759 0.0297071 0.564014 0.0545952 0.0301492 0.565557 -0.0351683 -3.56891 11.8649 3.96502 -3.42653 18.6134 5.89191 -0.0 0.0 -0.0 -1.46777 11.1799 -1.16954 -30.5861 -17.7508 77.5639 0.540598 -14.992 0.0711332 1.13598 0.038638 -0.139939 0.5098 -7.78689 0.136758 -0.0 0.0 -0.0 12.6196 27.2456 -24.6504 14.4079 19.0079 -54.957 1.92472 43.6304 -0.770487 4.05211 -0.125042 0.502367 1.23054 7.60958 -5.08439 0.0 0.0 0.0 31.3818 4.2192 -8.45315 -15.4786 0.322081 2.34632 7.60556 5.06958 -1.09116 -28.4819 0.0 0.0 -0.0 0.0 -0.0 -13.2289 -19.4313 -1.18876 3.39527 0.154634 0.497937 34.8098 22.063 4.94019 -21.4357 0.0 0.0 0.0 0.0 0.0 
3505.3 721.59 -1406.04 -4.27492 76.9885 4.96577 0.0868471 0.314046 -0.0556685 0.0867928 0.316951 -0.035572 0.086567 0.317396 0.0313589 0.0867073 0.318365 -0.0191619 -3.44184 12.1457 1.71029 -3.2804 20.8439 3.58877 -0.0 0.0 -0.0 -1.8998 11.8641 -1.79387 -32.2205 -18.2553 77.2583 0.501932 -13.9632 0.0614662 1.34594 0.0454745 -0.165884 0.498227 -7.0 0.392994 -0.0 0.0 -0.0 12.7335 27.6291 -24.8632 15.642 19.5008 -54.9869 1.97701 44.3975 -0.80682 3.91345 -0.121352 0.48504 1.2591 8.52843 -4.88583 0.0 0.0 0.0 31.1295 3.75131 -9.39374 -12.005 0.305226 1.81372 7.90071 4.80131 -1.1327 -28.6069 0.0 0.0 -0.0 0.0 -0.0 -13.4053 -20.2702 -1.98179 -0.306827 -0.0125126 -0.0454232 36.87 24.12 5.25023 -20.5474 0.0 0.0 0.0 0.0 0.0 
3494.54 718.564 -1409.18 -4.43523 76.716 5.53623 0.258517 0.244721 0.106501 0.258492 0.237448 0.121857 0.259002 0.207295 0.168105 0.259037 0.231243 0.133257 -3.3199 12.3349 1.51838 -3.14507 21.3193 3.39799 -0.0 0.0 -0.0 -1.91004 11.7305 -1.83292 -32.9353 -17.9481 77.7852 0.426521 -11.9305 0.0445679 1.49528 0.0502793 -0.184353 0.533532 -6.61643 0.793985 -0.0 0.0 -0.0 12.8462 27.7995 -25.0998 16.1297 19.9182 -55.0834 2.04616 45.3818 -0.855619 4.05854 -0.125212 0.503172 1.40875 9.66115 -5.41346 0.0 0.0 0.0 32.2007 2.98576 -10.6878 -10.6866 0.29038 1.61197 6.32567 4.67947 -0.911587 -29.0137 0.0 0.0 -0.0 0.0 -0.0 -13.6596 -20.6961 -2.42596 -1.79212 -0.0696304 -0.266203 37.2575 22.6406 5.21553 -20.0306 0.0 0.0 0.0 0.0 0.0 
